<svg id="Шар_1" data-name="Шар 1" xmlns="http://www.w3.org/2000/svg" xmlns:xlink="http://www.w3.org/1999/xlink" viewBox="0 0 255.12 85.04"><defs><style>.cls-1{fill:#f5f4f4;}.cls-2{fill:url(#Новий_зразок_градієнта_2);}.cls-3{fill:url(#Новий_зразок_градієнта_1);}.cls-4{fill:url(#Новий_зразок_градієнта_2-2);}.cls-5{opacity:0.9;fill:url(#Новий_зразок_градієнта_1-2);}.cls-6{fill:#27348b;}.cls-7{fill:#37374b;}</style><linearGradient id="Новий_зразок_градієнта_2" x1="52.49" y1="24.73" x2="56.42" y2="27" gradientUnits="userSpaceOnUse"><stop offset="0" stop-color="#4565ad"/><stop offset="0.2" stop-color="#415fa9"/><stop offset="0.25" stop-color="#405da7"/><stop offset="0.43" stop-color="#3b54a1"/><stop offset="0.72" stop-color="#2c3c90"/><stop offset="0.8" stop-color="#27348b"/><stop offset="1" stop-color="#27348b"/></linearGradient><linearGradient id="Новий_зразок_градієнта_1" x1="41.98" y1="27.58" x2="45.78" y2="28.53" gradientTransform="translate(8.09 -9.78) rotate(14)" gradientUnits="userSpaceOnUse"><stop offset="0" stop-color="#d7d7d7"/><stop offset="0.02" stop-color="#d6d6d6"/><stop offset="0.37" stop-color="#c7c6c6"/><stop offset="0.65" stop-color="#c1c0c0"/><stop offset="1" stop-color="#bfbebe"/></linearGradient><linearGradient id="Новий_зразок_градієнта_2-2" x1="42.33" y1="39.93" x2="55.96" y2="47.8" xlink:href="#Новий_зразок_градієнта_2"/><linearGradient id="Новий_зразок_градієнта_1-2" x1="37.65" y1="48.11" x2="62.1" y2="48.11" gradientTransform="matrix(1, 0, 0, 1, 0, 0)" xlink:href="#Новий_зразок_градієнта_1"/></defs><polyline class="cls-1" points="71.33 28.39 45.33 68.74 32 32.58 37.63 22.05 63.08 16.3 71.33 28.39"/><ellipse class="cls-2" cx="54.45" cy="25.87" rx="2.13" ry="2.64"/><ellipse class="cls-3" cx="43.88" cy="28.06" rx="1.86" ry="2.29" transform="translate(-5.48 11.45) rotate(-14)"/><path class="cls-4" d="M65.28,31.14c.6-.49.49-1.15-.56-1.43-2.69-.71-18-1.42-18,3.15,0,1.1,1.36,2.3,1.89,3.1.88,1.31,1.44,2.1-.06,4.93A10.35,10.35,0,0,0,47.37,47a76.62,76.62,0,0,1,.21,7.68A35.71,35.71,0,0,1,46.77,61l-.88,4.2L54.17,47.8s2.62-4.73.77-8.15a4,4,0,0,1-.46-1.21c-.3-1.51.14-2.38,3.2-3.84.77-.38,2.16-.91,2.78-1.18a34.88,34.88,0,0,0,4.81-2.27Z"/><path class="cls-5" d="M62.1,31c-5.88.45-9.1.29-18.28.14-6.61-.1-6.4,1.78-6,2.48a6.78,6.78,0,0,0,2,1.77c2.28,1.44,5.86,3.12,3.85,6.63-1.32,2.31-.45,4.6,1.41,9.85a31.18,31.18,0,0,1,1.16,10.53c-.06.83-.22,1.94-.38,2.84,0,0,2.08-9.06,4.24-16s.59-8.23-.89-9.34c0,0-4.51-2.79-.49-5.08,2.71-1.54,4.56-1.36,8.06-2.22A35.25,35.25,0,0,0,62.09,31Z"/><path class="cls-6" d="M70.34,41.88c-.13-.35-.1-.55.32-.61,2.24-.29,3.86-1.59,6-1.91s3.69.74,4.89,2.85c3,5.18-2.78,14.64-11.46,17.52A1.92,1.92,0,0,1,68,59.5a7.2,7.2,0,0,1-1.36-1.39c-.61-.84-.77-1.33-.09-3.43a57.71,57.71,0,0,1,5.92-11.44A2.32,2.32,0,0,1,70.34,41.88Zm3,4.44c-1.62,2.88-4.25,7.19-5.18,10.17-.43,1.36-.2,1.82.77,1.46,8.85-3.37,12.93-12.63,11-15.68-1.14-1.81-3.5-.09-5.77.65A5.14,5.14,0,0,1,73.32,46.32Z"/><path class="cls-6" d="M80.42,55a39,39,0,0,1,4.1-7.78c.29-.38.51-.48.77-.19.48.51.73,1.89,0,3.49-.67,1.41-2,3.58-2.68,5.18-.77,1.86-.71,3.11.32,3,1.44-.06,3.2-2.17,4.16-4.38.16-.29.38-.26.51,0a2.28,2.28,0,0,1-.23,2,5.74,5.74,0,0,1-4.76,3.33C80.13,59.71,79.53,57.66,80.42,55Zm7.14-8.35a1.16,1.16,0,0,1-1.79-.48,2,2,0,0,1,.16-2.37c.51-.55,1.44-.16,1.85.7A2,2,0,0,1,87.56,46.69Z"/><path class="cls-6" d="M98.31,46.88c.29-.42.54-.48.77-.19a3.5,3.5,0,0,1,0,3.55c-.71,1.44-2.31,3.84-3.08,5.53s-.83,3.17.26,3.11A3.93,3.93,0,0,0,98.78,57c.3-.44.5-1.12.74-1,.63.42.37,1.63-.18,2.18a4.69,4.69,0,0,1-3.3,1.6,2.49,2.49,0,0,1-2.63-2.63c-1,1.31-2.46,2.5-4,2.5-3,0-3.58-4.07-.92-7.94s5.12-5.21,6.72-5.21a2,2,0,0,1,2,2.3A21.11,21.11,0,0,1,98.31,46.88Zm-2.56,1.31c-1-.1-3.36,2-5.12,4.83s-2.11,5.57-.86,5.6,3-2,4.6-4.83C96.39,50.27,96.68,48.29,95.75,48.19Z"/><path class="cls-6" d="M120.84,54.4a.33.33,0,0,1,.29-.23c.19,0,.38.29.38.74,0,2.14-2.85,4.9-5.15,4.9-4.55,0-2.47-4.68-1.19-7.33l-.25,0c-2.27,4.09-3.87,6.72-6.69,6.72-3.65,0-2.4-3.62-1.06-6.69l-.25,0c-2.63,4.73-4.51,7.26-6.53,7.29A1.57,1.57,0,0,1,98.57,58c0-1.31.67-2.94,1.76-2.94.16,0,.25,0,.25.19a.57.57,0,0,1-.09.26,5.45,5.45,0,0,0-.71,2.43c0,.54.16.89.51.89,1,0,2.47-2.08,5.76-7.16l3.36-5.22a.88.88,0,0,1,.68-.38c.57,0,.83.8.83,1.56a4.68,4.68,0,0,1-.29,1.54c-1.44,4.16-2.62,6.94-2.62,7.94,0,.64.32,1.08.76,1.08,1.06,0,2.08-1.53,5.28-6.52l3.36-5.22a.88.88,0,0,1,.68-.38c.57,0,.83.8.83,1.56,0,.48-.1,1-2.82,8.32-.32.9-1,2.88.64,2.88C118.05,58.81,119.62,56.64,120.84,54.4Z"/><path class="cls-6" d="M131,46.88c.29-.42.55-.48.77-.19a3.48,3.48,0,0,1,0,3.55c-.71,1.44-2.31,3.84-3.07,5.53s-.84,3.17.25,3.11c1.31-.07,3.07-2.24,4.19-4.45.17-.29.39-.32.52,0a3,3,0,0,1-.29,2c-.83,1.76-2.85,3.52-4.61,3.43a2.48,2.48,0,0,1-2.62-2.63c-1,1.31-2.47,2.5-4,2.5-3,0-3.59-4.07-.93-7.94s5.12-5.21,6.72-5.21a2,2,0,0,1,2,2.3C130.25,48.06,130.63,47.39,131,46.88Zm-2.56,1.31c-1-.1-3.36,2-5.12,4.83s-2.11,5.57-.86,5.6,3-2,4.61-4.83C129.06,50.27,129.35,48.29,128.42,48.19Z"/><path class="cls-6" d="M132.65,59.39c-.13.29-.32.42-.61.13-.64-.64-.83-1.7-.32-3.3a50.79,50.79,0,0,1,5.12-9.44c.22-.35.48-.32.67,0a3.39,3.39,0,0,1,0,3.23C136.14,52.45,134,56.38,132.65,59.39Zm7.93-6.59c-1.66.8-7.84,1.73-7.84,1.73-.92.19-.6-1.22.42-1.44,0,0,6.21-.9,7.68-1.73ZM138.34,55a39.54,39.54,0,0,1,4.1-7.78c.29-.38.51-.48.77-.19.48.51.73,1.89,0,3.49-.68,1.41-2,3.58-2.69,5.18-.77,1.86-.71,3.11.32,3,1.44-.06,3.2-2.17,4.16-4.38.16-.29.38-.26.51,0a2.27,2.27,0,0,1-.22,2,5.75,5.75,0,0,1-4.77,3.33C138.06,59.71,137.45,57.66,138.34,55Z"/><path class="cls-6" d="M154.79,46.65c1.09,0,1.67,1.73,1.25,3.14,1.54-1.5,3.68-3,4.74-3s1.4,1.92.76,3.52c-.57,1.44-2.14,3.56-2.94,5.16-.9,1.82-.45,3.29.7,3.26,1.32,0,2.76-2.14,4-4.38.16-.29.42-.29.58-.07a3.15,3.15,0,0,1-.29,2c-.89,1.82-2.94,3.42-4.8,3.42-2.78,0-3.81-2.21-2.62-4.83s4-6.24,3.55-6.4c-.26-.1-1.34.26-3.42,2.34a27.58,27.58,0,0,0-5.57,8.73c-.19.39-.45.48-.74.16-.54-.48-1-1.73-.06-4,1-2.66,4.51-7.07,3.87-7.3-.38-.16-2,.71-4,3a28.67,28.67,0,0,0-4.7,8c-.13.29-.32.42-.61.16-.71-.61-.87-1.66-.32-3.3a53.29,53.29,0,0,1,5-9.53c.23-.36.48-.32.67,0a4,4,0,0,1,0,3.42C151.24,48.51,153.64,46.62,154.79,46.65Z"/><path class="cls-6" d="M164.75,51.17c-.06-.29,0-.49.32-.45,1.73.09,4.1-.26,5.57-.26s2.21.74,2.4,1.67c.06.28,0,.48-.35.44-2.34-.19-4.13.36-5.6.29S164.94,52.13,164.75,51.17Z"/><path class="cls-6" d="M179.68,40.8c-.07-.29,0-.42.35-.39,2.66.16,6.18-.76,8-.8a2.22,2.22,0,0,1,2.43,1.57c.1.26,0,.48-.35.42a36.38,36.38,0,0,0-6.5.86c-1.28,1.92-2.85,4.7-4.41,7.55a17.49,17.49,0,0,1,2.27-.25c1.6-.07,2.3.45,2.62,1.44.1.28.1.48-.32.48a28.1,28.1,0,0,0-5.92.89c-.93,1.8-1.79,3.56-2.46,5.06a23.14,23.14,0,0,1,5-1c1.57-.07,2.37.45,2.72,1.41.09.28.06.48-.32.48a33.72,33.72,0,0,0-7.07,1.28c-.61.16-1,.16-1.35-.32a6.91,6.91,0,0,1-.67-1.19,1.91,1.91,0,0,1,0-1.82,85.76,85.76,0,0,1,7.36-14A2.27,2.27,0,0,1,179.68,40.8Z"/><path class="cls-6" d="M198.88,54.4c.16-.29.38-.29.54,0s.16,1.08-.29,2c-.86,1.79-2.88,3.43-4.73,3.43-3,0-4-1.73-1.19-7.33l-.25,0c-2.72,5.18-4.8,7.29-6.53,7.29-2.27,0-2-2.11-1.41-3.68.39-1,2-1.44,1.51-.57-.8,1.44-1,3.32-.2,3.32s2.4-1.92,5.76-7.16l3.36-5.22a.71.71,0,0,1,1.12-.19,3.2,3.2,0,0,1,.1,2.91l-2.53,6.78c-.73,1.89-.61,3,.64,2.88S197.66,56.64,198.88,54.4Z"/><path class="cls-6" d="M197.57,55a39.52,39.52,0,0,1,4.09-7.78c.29-.38.51-.48.77-.19.48.51.74,1.89,0,3.49-.67,1.41-2,3.58-2.69,5.18-.77,1.86-.7,3.11.32,3,1.44-.06,3.2-2.17,4.16-4.38.16-.29.38-.26.51,0a2.27,2.27,0,0,1-.22,2,5.75,5.75,0,0,1-4.77,3.33C197.28,59.71,196.67,57.66,197.57,55Zm7.13-8.35a1.16,1.16,0,0,1-1.79-.48,2,2,0,0,1,.16-2.37c.51-.55,1.44-.16,1.86.7A2,2,0,0,1,204.7,46.69Z"/><path class="cls-6" d="M214,46.65c1.09,0,1.67,1.73,1.25,3.14,1.53-1.5,3.68-3,4.74-3s1.4,1.92.76,3.52c-.57,1.44-2.14,3.56-2.94,5.16-.9,1.82-.45,3.29.7,3.26,1.32,0,2.75-2.14,4-4.38.16-.29.42-.29.58-.07a3.15,3.15,0,0,1-.29,2c-.9,1.82-2.94,3.42-4.8,3.42-2.78,0-3.81-2.21-2.62-4.83s4-6.24,3.55-6.4c-.26-.1-1.35.26-3.43,2.34a27.72,27.72,0,0,0-5.56,8.73c-.19.39-.45.48-.74.16-.54-.48-1-1.73-.06-4,1-2.66,4.51-7.07,3.87-7.3-.39-.16-2,.71-4,3a28.69,28.69,0,0,0-4.71,8c-.12.29-.32.42-.6.16-.71-.61-.87-1.66-.32-3.3a52.65,52.65,0,0,1,5-9.53c.22-.36.48-.32.67,0a4,4,0,0,1,0,3.42C210.4,48.51,212.8,46.62,214,46.65Z"/><path class="cls-7" d="M82.68,24.65h1v3.82l3.6-3.82h1.22l-3.68,3.86,4,4.72H87.55l-3.86-4.62v4.62h-1Zm6.77,8a.93.93,0,0,0,.68-.27,1,1,0,0,0,.27-.48,3.62,3.62,0,0,0,.14-.67,5.51,5.51,0,0,0,.06-.7V27.87H94v5.36h-.92V28.66H91.48V30c0,.35,0,.73,0,1.12a3.4,3.4,0,0,1-.22,1.07,2.05,2.05,0,0,1-.55.86,1.7,1.7,0,0,1-1.06.4Zm8.3.06-2.11-4.83h1.07l1.55,3.85,1.66-3.85h1l-3.59,8h-1ZM107,24.82a2,2,0,0,1-.45.31,4.87,4.87,0,0,1-.53.21l-.54.14-.53.16a2.24,2.24,0,0,0-.94.51,2.68,2.68,0,0,0-.59.75,3.42,3.42,0,0,0-.33.93,6.83,6.83,0,0,0-.14,1.05,2.23,2.23,0,0,1,.8-.89,2.14,2.14,0,0,1,1.15-.32,2.6,2.6,0,0,1,1.12.23,2.27,2.27,0,0,1,.8.63,2.62,2.62,0,0,1,.49.92,3.68,3.68,0,0,1,.16,1.11,3.59,3.59,0,0,1-.18,1.17,2.43,2.43,0,0,1-.53.91,2.26,2.26,0,0,1-.85.6,2.86,2.86,0,0,1-1.16.22,2.94,2.94,0,0,1-1.17-.22,2.42,2.42,0,0,1-.87-.6,2.7,2.7,0,0,1-.54-.92,3.59,3.59,0,0,1-.18-1.17c0-.57,0-1.16.07-1.77a7.29,7.29,0,0,1,.35-1.72,4.33,4.33,0,0,1,.84-1.44,3.2,3.2,0,0,1,1.54-.92l.44-.12.48-.13a4.7,4.7,0,0,0,.45-.17,1.23,1.23,0,0,0,.37-.23Zm-.5,5.85a3,3,0,0,0-.1-.8,1.66,1.66,0,0,0-.31-.67,1.4,1.4,0,0,0-.53-.46,1.66,1.66,0,0,0-.8-.18,1.89,1.89,0,0,0-.79.15,1.6,1.6,0,0,0-.57.42,1.77,1.77,0,0,0-.33.64,2.77,2.77,0,0,0,0,1.58,1.93,1.93,0,0,0,.35.63,1.63,1.63,0,0,0,.57.42,1.93,1.93,0,0,0,.77.16,2,2,0,0,0,.76-.14,1.5,1.5,0,0,0,.54-.39,1.73,1.73,0,0,0,.32-.6A2.63,2.63,0,0,0,106.5,30.67Zm11.79-5.85a2,2,0,0,1-.45.31,4.87,4.87,0,0,1-.53.21l-.54.14-.53.16a2.24,2.24,0,0,0-.94.51,2.68,2.68,0,0,0-.59.75,3.42,3.42,0,0,0-.33.93,6.83,6.83,0,0,0-.14,1.05A2.23,2.23,0,0,1,115,28a2.14,2.14,0,0,1,1.15-.32,2.6,2.6,0,0,1,1.12.23,2.27,2.27,0,0,1,.8.63,2.62,2.62,0,0,1,.49.92,3.68,3.68,0,0,1,.16,1.11,3.59,3.59,0,0,1-.18,1.17,2.43,2.43,0,0,1-.53.91,2.26,2.26,0,0,1-.85.6,2.86,2.86,0,0,1-1.16.22,2.94,2.94,0,0,1-1.17-.22,2.42,2.42,0,0,1-.87-.6,2.7,2.7,0,0,1-.54-.92,3.59,3.59,0,0,1-.18-1.17c0-.57,0-1.16.07-1.77a7.29,7.29,0,0,1,.35-1.72,4.33,4.33,0,0,1,.84-1.44,3.2,3.2,0,0,1,1.54-.92l.44-.12.48-.13a4.7,4.7,0,0,0,.45-.17,1.23,1.23,0,0,0,.37-.23Zm-.5,5.85a3,3,0,0,0-.1-.8,1.8,1.8,0,0,0-.31-.67,1.4,1.4,0,0,0-.53-.46,1.66,1.66,0,0,0-.8-.18,1.89,1.89,0,0,0-.79.15,1.6,1.6,0,0,0-.57.42,2,2,0,0,0-.34.64,2.85,2.85,0,0,0-.1.79,2.52,2.52,0,0,0,.12.79,1.93,1.93,0,0,0,.35.63,1.63,1.63,0,0,0,.57.42,1.89,1.89,0,0,0,.77.16,2,2,0,0,0,.76-.14,1.38,1.38,0,0,0,.53-.39,1.6,1.6,0,0,0,.33-.6A2.63,2.63,0,0,0,117.79,30.67Zm7.13,1.59a2.36,2.36,0,0,1-.82.89,2.09,2.09,0,0,1-1.13.31,2.59,2.59,0,0,1-1-.21,2.32,2.32,0,0,1-.81-.58,2.89,2.89,0,0,1-.52-.91,3.77,3.77,0,0,1-.19-1.2,3.51,3.51,0,0,1,.19-1.2,2.56,2.56,0,0,1,.51-.92,2.17,2.17,0,0,1,.8-.57,2.61,2.61,0,0,1,1-.2,2.06,2.06,0,0,1,2,1.21v-1h.92v5.36h-.89Zm0-1.66a2.37,2.37,0,0,0-.14-.83,1.69,1.69,0,0,0-.37-.64,1.66,1.66,0,0,0-.57-.41,1.83,1.83,0,0,0-.71-.14,1.66,1.66,0,0,0-1.29.51,2,2,0,0,0-.46,1.43,2.22,2.22,0,0,0,.46,1.5,1.92,1.92,0,0,0,2.61,0A2.06,2.06,0,0,0,124.92,30.6Zm2.52,2a.94.94,0,0,0,.68-.27,1.12,1.12,0,0,0,.27-.48,4.67,4.67,0,0,0,.14-.67,5.49,5.49,0,0,0,.05-.7c0-.23,0-.43,0-.59V27.87H132v5.36h-.93V28.66h-1.6V30c0,.35,0,.73-.05,1.12a3.7,3.7,0,0,1-.21,1.07,2.18,2.18,0,0,1-.56.86,1.68,1.68,0,0,1-1.06.4Zm7.05-4.77h.9v2.22h.81a3.88,3.88,0,0,1,.7.06,1.53,1.53,0,0,1,1.15.79,1.6,1.6,0,0,1,.18.72,1.65,1.65,0,0,1-.17.71,1.28,1.28,0,0,1-.51.57,1.59,1.59,0,0,1-.71.25,6.06,6.06,0,0,1-.73,0h-1.62Zm.9,4.59h.52l.64,0a1.1,1.1,0,0,0,.41-.12.92.92,0,0,0,.21-.26.83.83,0,0,0,.08-.39.72.72,0,0,0-.38-.7,1.22,1.22,0,0,0-.34-.1l-.44,0h-.7ZM140,27.87h.92v2h2.79v-2h.92v5.36h-.92V30.65h-2.79v2.58H140Zm12.48,2.69a2.71,2.71,0,0,1-.85,2,3,3,0,0,1-.95.65,3,3,0,0,1-1.11.22,2.85,2.85,0,0,1-2.07-.85,2.79,2.79,0,0,1-.85-2.05,2.7,2.7,0,0,1,.22-1.1,2.82,2.82,0,0,1,.63-.95,2.7,2.7,0,0,1,.94-.62,2.85,2.85,0,0,1,1.13-.22,3,3,0,0,1,1.12.22,3.1,3.1,0,0,1,.94.63,2.78,2.78,0,0,1,.63.94A2.7,2.7,0,0,1,152.48,30.56Zm-1,0a1.89,1.89,0,0,0-.16-.79,1.8,1.8,0,0,0-.41-.64,1.83,1.83,0,0,0-1.36-.59,2,2,0,0,0-.77.15,1.9,1.9,0,0,0-.61.44,2,2,0,0,0-.42.64,2.06,2.06,0,0,0-.15.79,2,2,0,0,0,.16.81,1.93,1.93,0,0,0,.42.63,1.9,1.9,0,0,0,.61.44,1.94,1.94,0,0,0,.76.15,1.83,1.83,0,0,0,1.36-.59,1.76,1.76,0,0,0,.41-.63A2,2,0,0,0,151.5,30.56Zm3-2.69h3.19v.8h-2.27v4.56h-.92Zm10.34,2.69a2.71,2.71,0,0,1-.85,2,2.93,2.93,0,0,1-1,.65,3,3,0,0,1-1.11.22,2.85,2.85,0,0,1-2.07-.85,2.83,2.83,0,0,1-.85-2.05,2.88,2.88,0,0,1,.22-1.1,3,3,0,0,1,.63-.95,2.65,2.65,0,0,1,1-.62,2.76,2.76,0,0,1,1.12-.22,3,3,0,0,1,1.12.22,3.1,3.1,0,0,1,.94.63,2.81,2.81,0,0,1,.64.94A2.87,2.87,0,0,1,164.87,30.56Zm-1,0a2.06,2.06,0,0,0-.15-.79,2.13,2.13,0,0,0-.41-.64,2,2,0,0,0-.63-.44,1.85,1.85,0,0,0-.74-.15,2,2,0,0,0-.77.15,1.9,1.9,0,0,0-.61.44,2,2,0,0,0-.42.64,2.05,2.05,0,0,0-.14.79,2.16,2.16,0,0,0,.15.81,1.93,1.93,0,0,0,.42.63,2,2,0,0,0,.61.44,2,2,0,0,0,.76.15,1.85,1.85,0,0,0,.74-.15,2,2,0,0,0,.63-.44,2.08,2.08,0,0,0,.41-.63A2.16,2.16,0,0,0,163.89,30.56Zm8.17-1.89h-1.73v-.8h4.37v.8H173v4.56h-.92Zm8.47,3.59a2.29,2.29,0,0,1-.82.89,2.05,2.05,0,0,1-1.12.31,2.52,2.52,0,0,1-1.05-.21,2.15,2.15,0,0,1-.81-.58,2.55,2.55,0,0,1-.52-.91,3.51,3.51,0,0,1-.19-1.2,3.78,3.78,0,0,1,.18-1.2,2.43,2.43,0,0,1,.52-.92,2.14,2.14,0,0,1,.79-.57,2.63,2.63,0,0,1,1-.2,2.07,2.07,0,0,1,2,1.21v-1h.91v5.36h-.89Zm0-1.66a2.37,2.37,0,0,0-.13-.83,1.83,1.83,0,0,0-.37-.64,1.66,1.66,0,0,0-.57-.41,1.89,1.89,0,0,0-.72-.14,1.66,1.66,0,0,0-1.29.51,2.06,2.06,0,0,0-.46,1.43,2.28,2.28,0,0,0,.46,1.5,1.68,1.68,0,0,0,1.33.52,1.64,1.64,0,0,0,1.28-.5A2.06,2.06,0,0,0,180.53,30.6Zm3.34-2.73h.92v2h2.79v-2h.92v5.36h-.92V30.65h-2.79v2.58h-.92Zm11.42,5.36H191V27.87h.92v4.56h2.79V27.87h.92v4.56h.57v2.29h-.87Zm2.81-5.36H199v2.2h.74a3,3,0,0,1,.32-.95,2.77,2.77,0,0,1,.59-.76,2.43,2.43,0,0,1,.83-.5,2.79,2.79,0,0,1,1-.19,2.76,2.76,0,0,1,2,.84,2.86,2.86,0,0,1,.57.92,3,3,0,0,1,.2,1.13,3,3,0,0,1-.2,1.13,2.86,2.86,0,0,1-.57.92,2.75,2.75,0,0,1-.88.62,2.82,2.82,0,0,1-1.13.23,2.77,2.77,0,0,1-1.05-.2,2.6,2.6,0,0,1-.85-.55,3.06,3.06,0,0,1-.59-.83,2.72,2.72,0,0,1-.28-1H199v2.38h-.93Zm6.23,2.69a2.13,2.13,0,0,0-.13-.76,1.79,1.79,0,0,0-.36-.65,1.71,1.71,0,0,0-.58-.45,1.81,1.81,0,0,0-1.49,0,1.78,1.78,0,0,0-.57.45,1.81,1.81,0,0,0-.37.65,2.37,2.37,0,0,0-.12.76A2.12,2.12,0,0,0,201.2,32a1.89,1.89,0,0,0,.57.44,1.71,1.71,0,0,0,.75.16,1.65,1.65,0,0,0,.75-.16,1.82,1.82,0,0,0,.58-.44,2.14,2.14,0,0,0,.35-.65A2.2,2.2,0,0,0,204.33,30.56Z"/></svg>